<?xml version="1.0" standalone="no"?>
<!DOCTYPE svg PUBLIC "-//W3C//DTD SVG 20010904//EN"
 "http://www.w3.org/TR/2001/REC-SVG-20010904/DTD/svg10.dtd">
<svg version="1.0" xmlns="http://www.w3.org/2000/svg"
 width="64.000000pt" height="64.000000pt" viewBox="0 0 64.000000 64.000000"
 preserveAspectRatio="xMidYMid meet">

<g transform="translate(0.000000,64.000000) scale(0.100000,-0.100000)"
fill="#000000" stroke="none">
<path d="M90 320 l0 -300 30 0 30 0 0 141 c0 129 1 140 18 135 105 -30 100
-30 175 -11 67 16 76 16 126 1 86 -25 81 -34 81 128 l0 143 -42 8 c-56 11
-153 11 -200 1 -54 -12 -158 12 -158 36 0 13 -8 18 -30 18 l-30 0 0 -300z m40
0 c0 -180 -4 -280 -10 -280 -6 0 -10 100 -10 280 0 180 4 280 10 280 6 0 10
-100 10 -280z m68 213 c2 -13 -1 -23 -6 -23 -24 0 -42 14 -42 32 0 29 44 20
48 -9z m202 8 c0 -17 -18 -31 -41 -31 -10 0 -12 33 -2 43 14 15 43 7 43 -12z
m60 -7 c0 -33 -33 -30 -38 4 -3 17 2 22 17 22 16 0 21 -6 21 -26z m-190 -13
c0 -24 -13 -33 -34 -25 -27 10 -20 44 9 44 18 0 25 -5 25 -19z m60 0 c0 -10
-7 -22 -16 -25 -23 -9 -24 -8 -24 19 0 18 5 25 20 25 13 0 20 -7 20 -19z m200
-7 c0 -20 -4 -25 -16 -20 -9 3 -18 6 -20 6 -2 0 -4 9 -4 20 0 13 7 20 20 20
15 0 20 -7 20 -26z m-130 -38 c0 -17 -7 -25 -25 -28 -21 -4 -25 -1 -25 18 0
16 7 24 23 27 12 2 23 5 25 6 1 0 2 -10 2 -23z m60 -11 c0 -18 -4 -22 -20 -18
-13 3 -20 14 -20 28 0 18 4 22 20 18 13 -3 20 -14 20 -28z m-260 1 c0 -19 -4
-22 -25 -18 -16 3 -25 11 -25 23 0 14 7 19 25 19 20 0 25 -5 25 -24z m61 4 c5
0 9 -9 9 -20 0 -15 -7 -20 -25 -20 -20 0 -25 5 -25 26 0 20 4 25 16 20 9 -3
20 -6 25 -6z m69 -15 c0 -18 -5 -25 -20 -25 -35 0 -24 45 13 49 4 1 7 -10 7
-24z m200 -6 c0 -12 -7 -19 -20 -19 -14 0 -20 7 -20 24 0 19 4 23 20 19 11 -3
20 -14 20 -24z m-332 -47 c3 -20 0 -23 -20 -20 -15 2 -24 11 -26 26 -3 20 0
23 20 20 15 -2 24 -11 26 -26z m202 3 c0 -20 -5 -25 -25 -25 -43 0 -31 46 13
49 6 1 12 -10 12 -24z m58 -3 c3 -17 -2 -22 -17 -22 -16 0 -21 6 -21 26 0 33
33 30 38 -4z m-190 -20 c3 -20 0 -23 -20 -20 -15 2 -24 11 -26 26 -3 20 0 23
20 20 15 -2 24 -11 26 -26z m60 6 c-5 -34 -38 -37 -38 -4 0 20 5 26 21 26 15
0 20 -5 17 -22z m202 -4 c0 -33 -33 -30 -38 4 -3 17 2 22 17 22 16 0 21 -6 21
-26z m-330 -50 c0 -20 -4 -25 -16 -20 -9 3 -20 6 -25 6 -5 0 -9 9 -9 20 0 15
7 20 25 20 20 0 25 -5 25 -26z m200 7 c0 -17 -18 -31 -41 -31 -10 0 -12 33 -2
43 14 15 43 7 43 -12z m60 -7 c0 -20 -4 -25 -16 -20 -9 3 -18 6 -20 6 -2 0 -4
9 -4 20 0 13 7 20 20 20 15 0 20 -7 20 -26z m-190 -13 c0 -24 -8 -30 -31 -24
-12 3 -19 14 -19 28 0 18 4 21 25 17 15 -2 25 -11 25 -21z m60 5 c0 -15 -7
-26 -20 -29 -16 -4 -20 0 -20 18 0 14 7 25 18 28 9 3 18 5 20 6 1 0 2 -10 2
-23z m200 -12 c0 -20 -4 -25 -16 -20 -9 3 -18 6 -20 6 -2 0 -4 9 -4 20 0 13 7
20 20 20 15 0 20 -7 20 -26z"/>
</g>
</svg>
